PathFileType	4	(X/Y/Z)	Kaydara																																																																																																																									
DataRate	CameraRate	NumFrames	NumMarkers	Units	OrigDataRate	OrigDataStartFrame	OrigNumFrames																																																																																																																					
30	30	6	41	mm	30	74	147																																																																																																																					
Frame#	Time	NABA_LFHD			NABA_RFHD			NABA_LBHD			NABA_RBHD			NABA_LFTShould			NABA_RFTShould			NABA_LRRShould			NABA_RRRShould			NABA_T10			NABA_STRN			NABA_TRUN			NABA_LSHO			NABA_LUPA			NABA_LELB			NABA_LFRM			NABA_LWRA			NABA_LWRB			NABA_LFIN			NABA_RSHO			NABA_RUPA			NABA_RELB			NABA_RFRM			NABA_RWRA			NABA_RWRB			NABA_RFIN			NABA_LFWT			NABA_RFWT			NABA_LBWT			NABA_RBWT			NABA_LTHI			NABA_LKNE			NABA_LSHN			NABA_LANK			NABA_LHEE			NABA_LTOE			NABA_RTHI			NABA_RKNE			NABA_RSHN			NABA_RANK			NABA_RHEE			NABA_RTOE		
		X1	Y1	Z1	X2	Y2	Z2	X3	Y3	Z3	X4	Y4	Z4	X5	Y5	Z5	X6	Y6	Z6	X7	Y7	Z7	X8	Y8	Z8	X9	Y9	Z9	X10	Y10	Z10	X11	Y11	Z11	X12	Y12	Z12	X13	Y13	Z13	X14	Y14	Z14	X15	Y15	Z15	X16	Y16	Z16	X17	Y17	Z17	X18	Y18	Z18	X19	Y19	Z19	X20	Y20	Z20	X21	Y21	Z21	X22	Y22	Z22	X23	Y23	Z23	X24	Y24	Z24	X25	Y25	Z25	X26	Y26	Z26	X27	Y27	Z27	X28	Y28	Z28	X29	Y29	Z29	X30	Y30	Z30	X31	Y31	Z31	X32	Y32	Z32	X33	Y33	Z33	X34	Y34	Z34	X35	Y35	Z35	X36	Y36	Z36	X37	Y37	Z37	X38	Y38	Z38	X39	Y39	Z39	X40	Y40	Z40	X41	Y41	Z41
																																																																																																																												
74	2.443	247.40036	1560.0235	-1253.16933	77.05459	1538.39355	-1232.49321	260.53371	1556.32996	-1379.22546	43.54235	1542.13165	-1328.6879	229.70587	1311.33606	-1330.02792	83.92059	1294.24698	-1346.80054	240.27224	1388.10608	-1431.20087	92.34102	1379.2598	-1443.85635	192.54673	1247.01492	-1551.07376	162.35104	1247.02965	-1299.8378	164.33062	1139.30222	-1278.55446	332.02927	1342.73575	-1364.59839	394.92992	1136.25427	-1459.92081	406.68819	1049.21936	-1472.13593	402.70256	987.48528	-1524.53598	373.66688	816.73561	-1512.19177	443.98724	828.51379	-1522.87598	439.15462	761.10977	-1494.29031	4.64992	1329.57672	-1400.68787	-6.62141	1230.33386	-1571.2265	-49.61921	1131.87843	-1637.36664	-60.03849	1073.10539	-1709.24988	-39.80561	924.73129	-1756.21841	-111.42106	944.14825	-1778.89771	-108.58758	887.65526	-1777.37549	315.5747	926.5213	-1450.55481	51.44151	926.95908	-1454.60358	275.28984	1012.11296	-1601.18301	101.4898	1045.02777	-1601.82159	326.31817	658.03757	-1633.05878	321.1692	501.25843	-1597.33658	268.25714	335.41027	-1708.11218	295.31761	291.33001	-1867.44827	241.11824	306.55422	-1933.94791	250.85926	131.25802	-1872.93213	52.3203	660.02075	-1583.07632	66.70061	510.18879	-1451.83548	75.59242	339.60552	-1453.39584	70.62342	142.11972	-1490.03616	116.44897	88.69473	-1550.26428	96.49412	81.39563	-1362.68402
75	2.477	249.70999	1568.255	-1211.91605	79.5764	1547.20718	-1189.85153	261.97245	1564.19296	-1338.12241	45.32028	1550.65659	-1285.83267	230.75573	1317.84851	-1291.31714	84.73553	1301.67297	-1304.60648	239.0922	1392.60437	-1394.32907	90.58391	1382.23175	-1403.33115	184.10135	1249.0802	-1508.11539	163.99109	1255.61096	-1257.56111	167.51623	1148.08159	-1235.03502	332.18033	1346.92932	-1330.69031	391.77284	1146.72325	-1443.16467	406.20777	1060.68504	-1458.3699	401.50494	1006.62506	-1512.45758	377.83211	836.15265	-1523.8768	447.94289	850.12924	-1530.34363	437.68394	773.39844	-1520.93506	3.92131	1334.76135	-1360.80948	1.04796	1210.63698	-1525.87097	-42.33746	1107.33986	-1579.93576	-51.65613	1036.36658	-1640.98541	-62.9468	878.88092	-1648.35098	-117.81515	905.42465	-1692.99942	-131.37505	854.46892	-1681.46149	312.0351	933.14941	-1408.87329	50.73343	929.25446	-1405.9314	271.79955	1019.83986	-1557.33154	93.62223	1050.80956	-1553.80524	327.44144	655.40619	-1554.15421	315.16603	504.19071	-1494.776	256.66456	340.54516	-1602.67441	284.56631	296.00857	-1762.09702	229.55732	313.22935	-1830.96939	246.17105	143.81006	-1762.49771	50.00997	667.87125	-1562.29248	66.53398	506.58298	-1449.64905	74.89151	340.35374	-1455.57953	69.45865	142.86766	-1492.32391	114.79923	89.15188	-1552.33994	99.78946	78.86894	-1362.95746
76	2.51	251.39935	1569.14597	-1172.61086	81.39448	1548.54568	-1149.65256	263.18478	1564.02496	-1298.86246	46.68269	1551.26846	-1245.55725	233.9263	1316.59637	-1253.48839	86.27579	1299.81354	-1262.01561	236.33717	1391.28006	-1356.29929	87.85737	1378.55743	-1361.20453	176.09085	1245.41031	-1467.2879	168.57197	1254.42223	-1217.66029	173.47509	1147.59117	-1193.66196	333.68313	1344.11926	-1300.1329	388.45963	1154.43871	-1426.93726	407.03129	1066.30859	-1442.24564	404.13116	1016.82304	-1496.52679	382.53204	848.36197	-1519.95239	453.3765	862.71156	-1523.76801	433.4631	782.28104	-1530.3125	2.59186	1332.03522	-1316.5683	-1.24445	1191.8129	-1470.16891	-43.54109	1080.2787	-1514.0799	-54.07226	996.64749	-1560.61172	-77.82588	841.22482	-1529.78806	-124.60922	859.9733	-1586.05759	-146.13714	818.61801	-1567.9248	308.09824	934.55734	-1368.85437	47.34134	923.10913	-1363.75061	266.99726	1019.76952	-1517.61688	86.98153	1048.64456	-1508.75183	322.23217	653.451	-1477.48688	308.83417	511.62479	-1396.1911	250.51577	340.11131	-1488.48572	278.55343	283.85931	-1644.61105	222.68707	291.43112	-1716.00311	243.26031	138.27362	-1622.99637	50.25208	670.44991	-1535.16205	70.69205	502.30751	-1428.48083	78.26651	337.87247	-1443.05725	70.29241	142.05236	-1488.91495	114.29875	90.6174	-1552.52289	103.38128	77.11904	-1364.83368
77	2.543	252.82148	1564.00711	-1134.00993	82.80439	1544.86252	-1110.65048	264.46468	1556.83716	-1260.24658	48.01198	1546.36154	-1206.60439	237.91674	1309.32281	-1215.91103	90.00348	1289.0004	-1219.37683	233.62301	1386.46729	-1319.51492	84.99918	1372.68753	-1315.23834	169.82635	1241.0759	-1428.12378	174.46766	1243.90366	-1179.69604	181.46273	1137.4382	-1157.14645	333.88939	1338.85986	-1267.10739	387.49367	1153.90388	-1402.75421	408.12752	1067.77313	-1418.77808	405.07523	1020.09956	-1474.88434	383.53611	853.74016	-1506.84433	454.57054	867.4276	-1507.74399	429.20769	788.68324	-1527.36832	2.88294	1322.98904	-1264.85863	-20.55623	1170.60814	-1413.44696	-60.07816	1053.49762	-1441.63757	-73.93385	960.51888	-1471.90247	-80.47555	812.50847	-1410.71228	-138.28103	819.7422	-1457.71683	-154.01648	783.14934	-1428.94394	306.80042	930.48523	-1330.17517	44.85896	916.89499	-1321.89407	262.77601	1013.00995	-1481.06354	83.04599	1043.24875	-1467.80106	316.29131	650.25406	-1408.51334	303.89837	519.97673	-1308.50128	248.40288	334.9612	-1370.89432	277.98174	252.17669	-1515.15121	223.09454	244.89223	-1588.06686	242.55936	118.60961	-1463.32962	46.83271	668.0188	-1496.11343	70.10964	498.05229	-1399.08768	79.86456	331.88595	-1422.08954	73.72161	139.37175	-1480.50568	118.50094	93.01562	-1548.21289	104.23162	75.74371	-1361.70319
78	2.577	254.10452	1557.17468	-1094.69879	84.11625	1538.26004	-1071.31561	265.81812	1549.29611	-1220.79849	49.38959	1539.23828	-1167.45796	241.22456	1300.3186	-1177.31033	94.7054	1275.77545	-1178.48869	233.69423	1381.06781	-1281.2558	84.42576	1365.46356	-1270.77286	166.71131	1236.1763	-1389.03534	180.87198	1230.56076	-1142.68272	189.23578	1124.1394	-1121.36841	334.93416	1333.246	-1230.30159	387.74017	1152.06352	-1370.01205	407.35813	1066.82068	-1391.74301	403.4491	1020.13817	-1448.79105	380.87395	855.19173	-1485.05356	452.47829	868.46664	-1485.07034	427.39796	791.54839	-1509.92569	7.66656	1312.71957	-1212.61017	-44.02042	1147.6152	-1349.86053	-83.89458	1030.2317	-1361.81992	-100.98974	932.89116	-1372.65152	-73.01993	795.88997	-1297.01096	-144.10339	794.95918	-1319.44565	-144.65954	761.46858	-1281.2439	307.48871	921.9339	-1291.0762	45.01725	913.88657	-1275.83939	257.64412	1001.23619	-1443.85162	79.96046	1035.45624	-1425.45914	310.54354	644.72855	-1346.12579	299.97013	524.33632	-1234.50958	248.99288	327.66666	-1256.57288	279.78937	210.91963	-1374.84756	225.13603	185.22783	-1443.97064	247.22485	98.55824	-1291.00784	45.55314	666.36246	-1458.46924	68.85695	491.46591	-1369.8587	79.86014	326.11546	-1402.92313	74.98308	138.12568	-1474.18991	120.38268	95.48874	-1544.74106	105.52393	75.21143	-1360.99182
79	2.61	255.82611	1549.97452	-1054.48959	85.83406	1529.90784	-1031.56944	267.79379	1542.6152	-1180.62057	51.26748	1531.06171	-1127.73865	246.49857	1292.53601	-1139.02748	100.18775	1267.40341	-1137.55264	234.79147	1375.02701	-1241.79947	86.19158	1358.77777	-1228.39401	165.21584	1229.01962	-1349.0683	187.37343	1220.85793	-1105.06516	196.98423	1115.27161	-1083.61572	337.96913	1328.71201	-1194.40331	385.16792	1151.45424	-1340.00137	406.22444	1067.45651	-1363.48907	399.4479	1019.05296	-1420.90469	377.84801	852.37717	-1451.87866	448.45901	867.39487	-1457.18338	426.87386	789.65012	-1476.82968	15.05802	1305.01266	-1165.32043	-50.75322	1132.31033	-1289.14825	-100.39152	1013.60916	-1275.84366	-115.30182	914.82956	-1270.81863	-59.12005	789.08188	-1191.35376	-134.05169	783.50082	-1193.15918	-123.08	756.1026	-1152.82425	307.47524	914.13071	-1245.63644	44.5782	909.78043	-1225.60928	250.68333	988.73184	-1401.69647	77.39215	1026.08192	-1379.46442	304.46838	637.56432	-1291.40915	297.58678	521.16749	-1176.3678	253.62894	322.73487	-1149.62303	282.46847	175.69704	-1228.92738	225.66643	130.02771	-1286.80847	258.13385	93.10596	-1115.38315	41.5766	666.05293	-1420.79788	67.14307	485.00469	-1343.93478	79.60747	322.06566	-1386.76758	74.21649	138.39625	-1468.79913	119.03613	99.1841	-1542.39441	105.83639	75.08746	-1360.66132
